<svg width="160" height="46" viewBox="0 0 160 46" fill="none" xmlns="http://www.w3.org/2000/svg">
<g clip-path="url(#clip0_660_5581)">
<path fill-rule="evenodd" clip-rule="evenodd" d="M46.0029 23.0048C46.0029 10.3055 35.6974 0 23.0048 0C10.3123 0 0 10.3055 0 23.0048C0 29.3545 2.57638 35.1023 6.74186 39.2678L0 46.0029H22.9102C22.9102 46.0029 22.971 46.0029 22.9981 46.0029C35.6906 46.0029 46.0029 35.6974 46.0029 22.9981V23.0048Z" fill="#FF0000"/>
<path d="M38.6507 27.312C36.4733 24.4245 33.241 22.2674 29.7449 20.9623C32.8826 20.0156 36.6694 20.9758 39.2255 22.619C39.1511 19.1906 38.0015 16.0259 36.1149 13.436C32.2943 13.2873 28.3587 14.5788 25.025 16.6616C25.9581 13.3684 29.1093 10.6906 32.0711 9.53427C29.4812 7.78964 26.3639 6.76855 23.0031 6.76855C22.9084 6.76855 22.8205 6.76855 22.7258 6.76855C20.5349 9.60866 19.3109 13.2602 18.9526 16.9388C17.262 14.2137 17.1741 10.4066 18.0464 7.53268C14.8682 8.547 12.116 10.5215 10.128 13.1047C10.9935 16.506 13.0289 19.6775 15.6121 22.2133C12.5015 21.8279 9.55993 19.5896 7.84911 17.1755C7.15261 18.981 6.77393 20.942 6.77393 22.9909C6.77393 24.2758 6.92269 25.52 7.2067 26.7169C10.3646 28.1437 14.0568 28.5359 17.6001 28.1302C15.3619 30.2805 11.8253 31.1664 8.88372 30.9906C10.4728 33.7901 12.8734 36.0689 15.7676 37.516C18.8849 35.9608 21.5289 33.3303 23.4561 30.3076C23.7266 33.4385 22.1443 36.7925 20.1224 38.9631C21.0556 39.1322 22.0158 39.2201 23.0031 39.2201C25.336 39.2201 27.5472 38.7265 29.5488 37.8406C30.3603 34.3852 29.9884 30.5984 28.8253 27.1294C31.4896 28.9349 33.1125 32.3903 33.4844 35.3724C35.9391 33.2897 37.7649 30.4969 38.6439 27.3052H38.6372L38.6507 27.312Z" fill="#F7F7F5"/>
<path fill-rule="evenodd" clip-rule="evenodd" d="M23.0046 19.0898C25.1618 19.0898 26.9199 20.8412 26.9199 23.0051C26.9199 25.169 25.1685 26.9204 23.0046 26.9204C20.8408 26.9204 19.0894 25.169 19.0894 23.0051C19.0894 20.8412 20.8408 19.0898 23.0046 19.0898Z" fill="#FF0000"/>
<path d="M159.609 14.2846C159.366 14.062 159.049 13.9473 158.658 13.9473C158.212 13.9473 157.841 14.0889 157.538 14.3655C157.234 14.6421 157.093 15.0065 157.093 15.4517C157.093 15.8228 157.214 16.1196 157.457 16.3423C157.7 16.5447 158.017 16.6526 158.408 16.6526C158.853 16.6526 159.224 16.5109 159.528 16.2343C159.845 15.9577 160 15.5934 160 15.1481C160 14.7771 159.872 14.487 159.609 14.2846ZM154.671 33.4917H156.431L158.806 19.3917H157.045L154.671 33.4917ZM143.559 20.1742C142.331 20.9029 141.38 21.9418 140.712 23.2979C140.058 24.6404 139.734 26.2123 139.734 28.0136C139.734 29.9701 140.199 31.4206 141.13 32.3651C142.082 33.2961 143.316 33.7616 144.841 33.7616C145.752 33.7616 146.609 33.5862 147.411 33.2286C147.924 32.9993 148.396 32.6619 148.842 32.2504L148.977 33.4783H150.481C150.427 32.7699 150.427 32.075 150.481 31.3869C150.535 30.6987 150.65 29.9094 150.818 29.0121L152.606 20.1608C151.135 19.4321 149.584 19.0746 147.944 19.0746C146.305 19.0746 144.807 19.4389 143.559 20.1608V20.1742ZM150.663 21.0918L148.713 31.2654C148.268 31.5623 147.782 31.8186 147.243 32.0143C146.609 32.2167 145.961 32.3246 145.286 32.3246C144.079 32.3246 143.148 31.9738 142.493 31.2654C141.859 30.5368 141.542 29.4506 141.542 28.0001C141.542 26.5496 141.792 25.2071 142.298 24.0939C142.817 22.9605 143.546 22.0835 144.477 21.4696C145.428 20.8556 146.521 20.5453 147.769 20.5453C148.349 20.5453 148.923 20.6128 149.503 20.7409C149.894 20.8152 150.279 20.9433 150.663 21.0985V21.0918Z" fill="#151515"/>
<path d="M134.87 33.6611C134.458 33.6611 134.128 33.5397 133.865 33.2968C133.622 33.0539 133.5 32.7571 133.5 32.4063C133.5 31.9205 133.649 31.5292 133.946 31.2324C134.263 30.9355 134.641 30.7871 135.093 30.7871C135.504 30.7871 135.828 30.9085 136.071 31.1514C136.314 31.3943 136.435 31.6979 136.435 32.0757C136.435 32.5007 136.287 32.8785 135.99 33.1956C135.693 33.5127 135.322 33.6678 134.87 33.6678V33.6611Z" fill="#FF0000"/>
<path d="M130.019 20.8223C128.75 19.5203 126.956 18.8659 124.628 18.8659C122.301 18.8659 120.466 19.5203 119.184 20.8223C117.916 22.1244 117.288 23.9797 117.288 26.3747C117.288 28.7697 117.922 30.598 119.184 31.9C120.466 33.2021 122.281 33.8565 124.628 33.8565C126.976 33.8565 128.75 33.2021 130.019 31.9C131.287 30.598 131.915 28.7562 131.915 26.3747C131.915 23.9932 131.28 22.1244 130.019 20.8223ZM126.754 29.559C126.254 30.3011 125.532 30.6789 124.601 30.6789C123.67 30.6789 122.942 30.3079 122.422 29.559C121.923 28.8169 121.667 27.7509 121.667 26.3747C121.667 24.9984 121.916 23.9392 122.422 23.1903C122.942 22.428 123.67 22.0434 124.601 22.0434C125.532 22.0434 126.248 22.428 126.754 23.1903C127.273 23.9325 127.536 24.9984 127.536 26.3747C127.536 27.7509 127.273 28.8101 126.754 29.559ZM109.064 18.8659C108.282 18.8659 107.56 18.9873 106.885 19.2302C106.426 19.3988 106.028 19.6215 105.657 19.8711V12.1396H101.468V32.6826C102.642 33.0739 103.782 33.364 104.902 33.5462C106.035 33.7485 107.128 33.8565 108.167 33.8565C110.528 33.8565 112.309 33.1953 113.497 31.873C114.704 30.5305 115.312 28.6077 115.312 26.0981C115.312 23.8245 114.765 22.0569 113.665 20.7954C112.586 19.5135 111.048 18.8726 109.058 18.8726L109.064 18.8659ZM110.596 28.6617C110.373 29.3499 110.029 29.8626 109.564 30.1999C109.118 30.517 108.552 30.6722 107.863 30.6722C107.115 30.6722 106.379 30.598 105.657 30.4563V22.6034C105.907 22.482 106.163 22.374 106.44 22.2931C106.959 22.1446 107.452 22.0704 107.917 22.0704C108.882 22.0704 109.631 22.3943 110.15 23.0487C110.67 23.6828 110.933 24.6881 110.933 26.0643C110.933 27.1033 110.818 27.9736 110.596 28.6617ZM94.7956 19.7834C94.3435 20.0802 93.9185 20.4648 93.5137 20.9235L92.7244 18.9468L89.5131 19.5877C89.6615 20.3164 89.7627 21.0787 89.8234 21.8748C89.8976 22.6776 89.9381 23.5344 89.9381 24.4452V33.4922H94.1277V23.2241C94.4178 22.9879 94.7753 22.799 95.2138 22.6574C95.8278 22.455 96.4687 22.347 97.1366 22.347C97.7707 22.347 98.3577 22.4212 98.8974 22.5697L99.3427 22.0974V19.0548C98.8434 18.9266 98.3307 18.8591 97.8045 18.8591C96.7048 18.8591 95.6996 19.1695 94.7888 19.7834H94.7956ZM86.6391 28.2165V19.2302H82.4495V29.7951C82.1392 29.957 81.7884 30.092 81.3904 30.2067C80.9046 30.3213 80.4391 30.3753 79.9938 30.3753C79.2315 30.3753 78.6648 30.2202 78.2937 29.9031C77.9429 29.5657 77.7608 29.0463 77.7608 28.3379V19.2369H73.5712V28.4458C73.5712 30.2134 73.9962 31.5627 74.853 32.4937C75.7098 33.4045 76.9647 33.8632 78.6243 33.8632C79.6093 33.8632 80.5403 33.6474 81.4173 33.2223C82.0178 32.9322 82.5845 32.5139 83.1242 31.9877L83.8461 33.7823L87.0844 33.1414C86.9359 32.4127 86.8213 31.6504 86.747 30.8543C86.6728 30.038 86.6323 29.161 86.6323 28.2299L86.6391 28.2165ZM64.423 29.7412L60.5775 15.2363H56.2261V16.3225L61.7784 33.4922H66.8315L72.3029 16.3225V15.2363H68.201L64.423 29.7412Z" fill="#151515"/>
</g>
<defs>
<clipPath id="clip0_660_5581">
<rect width="160" height="46.0029" fill="white"/>
</clipPath>
</defs>
</svg>