<svg width="373" height="335" viewBox="0 0 373 335" fill="none" xmlns="http://www.w3.org/2000/svg">
<path d="M244.654 330.515C301.157 330.515 347.038 284.71 347.132 228.208C347.226 171.705 301.498 125.9 244.995 125.9C188.492 125.9 142.611 171.705 142.517 228.208C142.423 284.71 188.151 330.515 244.654 330.515Z" fill="#D7D7CA"/>
<path d="M119.494 333.445H234.48L233.009 311.601C232.035 297.243 222.95 283.822 207.861 274.443C201.161 270.281 193.13 268.27 185.019 268.708L168.538 270.181C160.666 270.181 153.012 272.71 147.108 277.41C138.42 284.34 132.257 292.823 129.355 302.042L119.494 333.445Z" fill="#151515"/>
<path d="M181.858 181.07C181.858 181.07 151.183 199.649 141.104 214.006C131.025 228.364 131.641 242.283 153.787 243.498C153.787 243.498 158.241 240.769 157.187 249.073C156.113 257.696 154.861 266.079 154.861 266.079C154.861 266.079 154.463 275.717 162.157 277.569C177.485 281.253 191.679 270.082 187.723 269.743C187.723 269.743 186.709 259.169 189.313 252.22C191.937 245.25 195.814 238.26 195.814 238.26L202.971 237.444C202.971 237.444 212.056 235.831 213.269 222.828C214.481 209.804 211.758 181.607 181.858 181.07Z" fill="white"/>
<path d="M159.494 201.321C158.758 202.237 157.645 202.536 157.009 202.018C156.353 201.501 156.432 200.346 157.148 199.43C157.883 198.514 158.997 198.215 159.633 198.733C160.269 199.27 160.209 200.425 159.494 201.321Z" fill="#151515"/>
<path d="M173.27 210.601C172.534 211.517 171.421 211.816 170.785 211.298C170.129 210.78 170.208 209.625 170.924 208.709C171.66 207.793 172.773 207.495 173.409 208.012C174.045 208.55 173.986 209.705 173.27 210.601Z" fill="#151515"/>
<path d="M173.369 201.939C173.369 201.939 180.307 200.804 181.679 206.937" stroke="#151515" stroke-width="2" stroke-miterlimit="10" stroke-linecap="round" stroke-linejoin="round"/>
<path d="M156.074 193.655C156.074 193.655 163.012 192.52 164.384 198.653" stroke="#151515" stroke-width="2" stroke-miterlimit="10" stroke-linecap="round" stroke-linejoin="round"/>
<path d="M171.024 186.048C171.024 186.048 142.694 209.307 137.724 219.522C132.754 229.738 129.236 252.299 179.651 239.734" stroke="#151515" stroke-width="2" stroke-miterlimit="10" stroke-linecap="round" stroke-linejoin="round"/>
<path d="M163.688 202.815C160.965 205.643 158.221 208.47 155.498 211.298C155.498 211.298 153.251 214.086 156.929 215.918" stroke="#151515" stroke-width="2" stroke-miterlimit="10" stroke-linecap="round" stroke-linejoin="round"/>
<path d="M149.215 221.653C149.215 221.653 153.509 227.428 163.21 224.54" stroke="#151515" stroke-width="2" stroke-miterlimit="10" stroke-linecap="round" stroke-linejoin="round"/>
<path d="M186.867 218.825C186.867 218.825 201.399 205.702 198.199 199.231C194.998 192.759 176.748 189.812 174.184 190.608C171.619 191.425 174.044 187.243 174.044 187.243L164.224 188.677C164.224 188.677 167.464 177.107 175.834 175.793C184.203 174.478 180.983 176.072 180.983 176.072C180.983 176.072 181.46 168.106 193.229 170.476C204.998 172.826 219.749 184.455 221.021 189.035C222.293 193.615 227.363 210.024 223.546 220.04C219.729 230.036 210.663 228.344 210.663 228.344C210.663 228.344 212.393 221.155 202.87 219.343C193.348 217.531 191.738 224.261 191.738 224.261L186.867 218.825Z" fill="#151515"/>
<path d="M192.891 229.299C192.891 229.299 195.495 224.759 199.173 224.162C203.109 223.525 206.031 227.209 205.554 229.18" stroke="#151515" stroke-width="2" stroke-miterlimit="10" stroke-linecap="round" stroke-linejoin="round"/>
<path d="M212.334 227.328C212.334 227.328 209.154 236.807 202.971 237.424C195.516 238.161 195.814 238.241 195.814 238.241C195.814 238.241 185.357 251.562 188.12 269.006L188.16 272.193C188.16 272.193 154.702 290.314 154.841 264.187C154.901 254.868 156.65 243.418 156.65 243.418" stroke="#151515" stroke-width="2" stroke-miterlimit="10" stroke-linecap="round" stroke-linejoin="round"/>
<path d="M203.427 333.445H314.377L312.966 304.213C312.032 285.017 303.264 267.035 288.712 254.49L278.752 245.907L240.801 248.795C226.706 259.189 216.826 274.323 212.949 291.429L203.427 333.445Z" fill="white" stroke="#151515" stroke-width="2" stroke-miterlimit="10" stroke-linecap="round" stroke-linejoin="round"/>
<path d="M236.03 258.313L233.386 267.294L235.653 279.182L233.406 284.379C226.548 300.171 222.77 317.137 222.273 334.362L244.241 334.62L245.295 320.94C245.931 312.696 245.811 304.412 244.937 296.188L243.207 279.959L250.026 261.997L242.829 257.955L236.03 258.313Z" fill="#151515"/>
<path d="M281.112 256.959L239.304 259.767L237.833 220.12L274.591 218.746L281.112 256.959Z" fill="white" stroke="#151515" stroke-width="2" stroke-miterlimit="10" stroke-linecap="round" stroke-linejoin="round"/>
<path d="M259.563 169.739C259.563 169.739 242.168 184.614 237.556 182.862C232.943 181.11 221.731 174.419 224.554 165.956C227.377 157.493 230.061 160.4 233.838 161.276C237.615 162.172 238.768 152.992 241.233 153.191C243.699 153.39 246.144 155.063 250.577 158.867C254.99 162.71 259.563 169.739 259.563 169.739Z" fill="#151515"/>
<path d="M265.764 233.382C274.174 230.574 281.629 224.54 286.181 215.918C295.366 198.514 288.965 177.585 272.365 168.286C245.109 153.052 227.853 175.554 226.004 181.05C225.567 182.344 225.15 183.579 224.732 184.794C223.798 186.725 223.042 188.716 222.466 190.708C220.657 194.85 218.629 197.837 215.786 198.852C211.432 200.425 214.295 234.397 239.642 231.53" fill="white"/>
<path d="M265.764 233.382C274.174 230.574 281.629 224.54 286.181 215.918C295.366 198.514 288.965 177.585 272.365 168.286C245.109 153.052 227.853 175.554 226.004 181.05C225.567 182.344 225.15 183.579 224.732 184.794C223.798 186.725 223.042 188.716 222.466 190.708C220.657 194.85 218.629 197.837 215.786 198.852C211.432 200.425 214.295 234.397 239.642 231.53" stroke="#151515" stroke-width="2" stroke-miterlimit="10" stroke-linecap="round" stroke-linejoin="round"/>
<path d="M278.428 162.252C267.196 156.298 254.214 156.855 243.559 162.57C246.898 163.327 250.199 164.482 253.34 166.155C274.671 177.466 281.689 206.121 268.985 230.176C268.289 231.51 267.514 232.804 266.719 234.059C277.673 231.848 287.692 224.779 293.418 213.907C303.378 195.049 296.678 171.91 278.428 162.252Z" fill="#151515"/>
<path d="M249.383 182.145C250.536 176.928 257.196 177.545 252.703 175.016C244.215 170.237 241.113 160.201 241.113 160.201C261.769 154.306 283.657 185.013 283.657 185.013L278.925 226.492L275.784 236.15L265.307 235.393C261.828 235.134 258.926 232.665 258.131 229.26L253.996 211.497C254.155 211.597 254.314 211.696 254.473 211.796C258.488 213.927 263.478 212.393 265.606 208.371C267.733 204.348 266.202 199.35 262.186 197.219C258.17 195.089 253.18 196.622 251.053 200.644C251.033 200.664 251.033 200.684 251.014 200.704C249.88 200.306 247.316 199.151 248.171 197.08C249.284 194.471 248.23 187.362 249.383 182.145Z" fill="#151515"/>
<path d="M226.064 211.557C226.064 211.557 224.494 214.524 221.393 214.902" stroke="#151515" stroke-width="2" stroke-miterlimit="10" stroke-linecap="round" stroke-linejoin="round"/>
<path d="M254.631 204.348C254.631 204.348 255.724 201.182 258.746 200.326" stroke="#151515" stroke-width="2" stroke-miterlimit="10" stroke-linecap="round" stroke-linejoin="round"/>
<path d="M228.132 181.647C232.883 180.253 236.541 185.132 236.243 187.601" stroke="#151515" stroke-width="2" stroke-miterlimit="10" stroke-linecap="round" stroke-linejoin="round"/>
<path d="M228.768 193.356C228.172 194.232 227.158 194.591 226.541 194.153C225.905 193.715 225.885 192.659 226.482 191.783C227.078 190.907 228.092 190.548 228.708 190.987C229.325 191.425 229.364 192.48 228.768 193.356Z" fill="#151515"/>
<path d="M238.251 230.713L238.728 243.398C244.036 241.028 248.648 236.906 251.571 231.351C252.744 229.12 253.579 226.81 254.076 224.481C249.602 228.244 244.016 230.395 238.251 230.713Z" fill="#151515"/>
<path d="M238.317 245.031L225.435 282.229L242.134 266.577L248.157 286.789L290.224 255.704L278.832 241.228L243.386 256.919L238.317 245.031Z" fill="white" stroke="#151515" stroke-width="2" stroke-miterlimit="10" stroke-linecap="round" stroke-linejoin="round"/>
<path d="M262.055 334.322H373.005L371.594 313.931C370.659 300.529 361.892 288.004 347.34 279.262L337.38 273.268L299.429 275.279C285.334 282.527 275.454 293.081 271.577 305.009L262.055 334.322Z" fill="#E83D37"/>
<path d="M308.493 251.742L323.025 256.123C339.744 261.161 357.517 251.563 362.547 234.816L364.276 229.041C370.559 208.072 358.591 185.769 337.657 179.477L334.337 184.774C321.216 180.831 307.26 188.358 303.324 201.501L295.511 227.567C292.45 237.783 298.295 248.675 308.493 251.742Z" fill="#151515"/>
<path d="M361.389 221.6C361.602 203.093 345.826 187.906 326.152 187.679C306.479 187.453 290.359 202.272 290.146 220.78C289.934 239.287 305.71 254.474 325.383 254.701C345.056 254.927 361.177 240.108 361.389 221.6Z" fill="#151515"/>
<path d="M334.695 226.113C337.061 214.922 332.528 202.935 323.045 197.339C317.141 193.854 310.501 193.555 304.656 195.885C307.758 196.224 316.445 197.697 318.095 203.472C320.103 210.521 320.202 223.983 334.695 226.113Z" fill="#151515"/>
<path d="M309.869 211.64C317.677 207.585 320.725 197.958 316.677 190.137C312.628 182.316 303.017 179.263 295.21 183.318C287.402 187.373 284.354 197 288.402 204.821C292.45 212.642 302.061 215.694 309.869 211.64Z" fill="#151515"/>
<path d="M342.329 186.048C358.213 193.117 366.901 210.8 362.428 227.945C357.955 229.3 353.005 229.399 348.114 227.926C335.431 224.102 328.075 211.198 331.693 199.111C333.423 193.336 337.339 188.816 342.329 186.048Z" fill="#151515"/>
<path d="M335.006 210.24C343.667 208.711 349.451 200.44 347.925 191.764C346.4 183.089 338.142 177.295 329.481 178.824C320.82 180.352 315.036 188.624 316.562 197.299C318.087 205.974 326.345 211.768 335.006 210.24Z" fill="#151515"/>
<path d="M319.856 205.632C328.441 202.771 333.085 193.481 330.228 184.882C327.372 176.283 318.098 171.631 309.513 174.492C300.928 177.353 296.284 186.643 299.14 195.242C301.996 203.842 311.271 208.493 319.856 205.632Z" fill="#151515"/>
<path d="M364.356 198.235C364.356 198.235 358.372 197.657 355.589 202.078" stroke="#151515" stroke-width="2" stroke-miterlimit="10" stroke-linecap="round" stroke-linejoin="round"/>
<path d="M361.235 194.193C361.235 194.193 360.102 200.087 355.072 201.521" stroke="#151515" stroke-width="2" stroke-miterlimit="10" stroke-linecap="round" stroke-linejoin="round"/>
<path d="M285.969 211.278L288.673 206.14C295.074 193.974 309.487 190.509 320.7 198.454C330.898 203.831 335.809 215.34 333.264 226.094C337.737 227.468 340.759 231.868 340.242 236.707C339.785 240.929 336.763 244.234 332.906 245.27L339.486 279.441L309.984 292.365C302.43 295.67 293.842 290.732 292.888 282.527L293.086 264.924C290.999 264.446 288.912 263.729 286.924 262.674C274.836 256.322 270.184 241.307 276.546 229.2L280.979 220.737C278.733 219.223 277.918 216.256 279.19 213.787C280.482 211.298 283.425 210.263 285.969 211.278Z" fill="white" stroke="#151515" stroke-width="2" stroke-miterlimit="10" stroke-linecap="round" stroke-linejoin="round"/>
<path d="M329.427 245.768C334.914 246.365 339.824 242.402 340.42 236.906" stroke="#151515" stroke-width="2" stroke-miterlimit="10" stroke-linecap="round" stroke-linejoin="round"/>
<path d="M333.463 233.501C333.463 233.501 329.467 234.079 328.493 238.201" stroke="#151515" stroke-width="2" stroke-miterlimit="10" stroke-linecap="round" stroke-linejoin="round"/>
<path d="M285.313 225.974C285.313 225.974 288.514 229.479 293.484 225.436" stroke="#151515" stroke-width="2" stroke-miterlimit="10" stroke-linecap="round" stroke-linejoin="round"/>
<path d="M296.944 206.419C296.328 207.037 297.183 208.908 298.872 210.641C300.562 212.373 302.411 213.269 303.047 212.652C303.664 212.035 302.809 210.163 301.119 208.431C299.449 206.718 297.58 205.822 296.944 206.419Z" fill="#151515"/>
<path d="M327.916 202.477C337.856 205.842 344.078 215.978 342.349 226.512C339.744 227.567 336.762 227.906 333.741 227.288C325.888 225.695 320.759 218.367 322.27 210.9C322.985 207.355 325.073 204.408 327.916 202.477Z" fill="#151515"/>
<path d="M292.688 264.924C303.165 267.015 314.199 262.097 319.427 252.14" stroke="#151515" stroke-width="2" stroke-miterlimit="10" stroke-linecap="round" stroke-linejoin="round"/>
<path d="M313.622 258.452C314.437 257.755 315.212 257.019 315.928 256.242C312.011 267.135 302.867 274.642 292.33 276.912L292.449 266.219C300.044 266.238 307.558 263.69 313.622 258.452Z" fill="#151515"/>
<path d="M290.622 214.763C290.622 214.763 293.187 219.94 300.98 218.307" stroke="#151515" stroke-width="2" stroke-miterlimit="10" stroke-linecap="round" stroke-linejoin="round"/>
<path d="M306.626 278.465C306.626 278.465 292.829 278.744 292.789 271.456V292.404L293.385 293.241C295.632 296.427 309.23 306.105 331.476 290.772L342.191 282.587L336.823 263.013C336.804 263.013 330.442 276.932 306.626 278.465Z" fill="#E83D37" stroke="#151515" stroke-width="2" stroke-miterlimit="10" stroke-linecap="round" stroke-linejoin="round"/>
<path d="M154.801 264.566C153.787 263.61 152.097 264.287 152.038 265.661L151.282 282.766L151.759 283.623C153.588 286.908 156.709 288.94 160.129 289.099L164.423 289.298C171.759 289.617 179.015 287.287 185.178 282.647L188.319 280.138C192.374 276.892 194.303 271.754 193.329 266.716L192.315 261.479C191.838 259.05 188.657 258.353 187.146 260.324L186.092 261.718C162.316 274.144 156.59 266.238 154.801 264.566Z" fill="#151515"/>
<path d="M330.681 333.266C332.907 315.444 341.495 299.036 354.855 287.048L355.968 286.052" fill="#E83D37"/>
<path d="M330.681 333.266C332.907 315.444 341.495 299.036 354.855 287.048L355.968 286.052" stroke="#151515" stroke-width="2" stroke-miterlimit="10" stroke-linecap="round" stroke-linejoin="round"/>
<path d="M307.122 182.185C305.015 181.548 302.888 181.369 300.84 181.607C294.658 182.285 289.191 186.546 287.282 192.878C286.03 197.04 286.566 201.322 288.435 204.886" stroke="white" stroke-width="2" stroke-miterlimit="10"/>
<path d="M85.3187 204.965C125.146 204.965 157.496 172.679 157.575 132.851C157.653 93.024 125.43 60.7377 85.603 60.7377C45.7757 60.7377 13.4256 93.0241 13.3471 132.851C13.2686 172.679 45.4913 204.965 85.3187 204.965Z" fill="#E83D37"/>
<path d="M93.8488 163.087C106.426 150.484 106.426 130.052 93.8488 117.449C81.2712 104.847 60.8788 104.847 48.3012 117.449C35.7235 130.052 35.7235 150.484 48.3012 163.087C60.8788 175.689 81.2712 175.689 93.8488 163.087Z" fill="#151515"/>
<path d="M58.9727 199.963L64.709 156.615L100.741 144.761C111.198 141.328 134.84 168.35 140.358 179.586C137.509 182.939 134.342 186.072 130.817 188.946C109.903 205.91 82.3564 209.203 58.9727 199.963Z" fill="#D7D7CA"/>
<path d="M38.7971 155.757C36.4866 151.047 35.2915 145.719 35.5505 140.111C36.3472 122.309 51.3852 108.518 69.1521 109.297C86.9189 110.095 100.682 125.163 99.9055 142.964C99.1287 160.766 84.0707 174.557 66.3038 173.779" stroke="#151515" stroke-width="2" stroke-miterlimit="10" stroke-linecap="round" stroke-linejoin="round"/>
<path d="M82.7355 80.0391C93.6705 75.888 106.956 79.9992 108.669 84.2901C110.88 82.5338 113.748 81.3962 116.955 81.1767C124.444 80.6977 130.897 85.5474 131.375 91.9936C131.793 97.5816 127.571 102.531 121.576 104.068C122.81 107.979 123.647 112.21 123.966 116.641C125.28 134.343 96.6582 137.596 91.2604 137.935C76.6605 138.873 63.8732 126.659 62.6781 110.674C61.5029 94.6878 69.5299 85.0484 82.7355 80.0391Z" fill="#151515"/>
<path d="M99.0084 158.611L106.378 142.685L84.6276 126.081L80.9229 144.621L99.0084 158.611Z" fill="white" stroke="#151515" stroke-width="2" stroke-miterlimit="10" stroke-linecap="round" stroke-linejoin="round"/>
<path d="M101.935 152.464C89.0684 145.379 85.3438 127.458 85.3438 127.458L85.9413 127.078L106.377 142.685C106.377 142.685 102.155 151.945 101.935 152.464Z" fill="#151515"/>
<path d="M86.6587 85.3677C90.1244 85.8666 92.9727 87.2037 94.7653 89.439C99.8245 95.7455 96.1994 111.392 83.2129 114.765C82.3963 114.984 81.48 114.785 80.763 115.164C77.9745 103.309 80.5041 92.0733 86.6587 85.3677Z" fill="#151515"/>
<path d="M122.293 96.1447C117.473 98.9986 110.801 100.835 103.411 100.974C90.9823 101.214 80.4257 96.6237 77.1592 90.1575C80.2664 83.5117 85.4052 78.7419 92.018 77.305C103.292 74.8503 115.422 82.8731 122.293 96.1447Z" fill="#151515"/>
<path d="M84.091 129.827C89.0515 128.825 92.2622 123.983 91.2623 119.013C90.2624 114.043 85.4306 110.826 80.4701 111.828C75.5096 112.829 72.2989 117.671 73.2987 122.641C74.2986 127.611 79.1305 130.828 84.091 129.827Z" fill="white"/>
<path d="M82.0772 111.652C83.9893 111.612 85.782 112.17 87.2758 113.148C92.3748 110.394 95.4422 105.445 96.5177 100.595C98.7286 100.875 101.039 101.014 103.409 100.974C110.66 100.835 117.193 99.0585 121.993 96.3243C123.467 99.3578 124.682 102.711 125.518 106.303C129.621 123.885 123.427 140.35 111.715 143.104C102.931 145.16 93.53 138.933 87.6343 128.296C86.1803 129.354 84.3877 129.992 82.4556 130.032C77.3965 130.132 73.2137 126.101 73.1141 121.031C73.0145 115.942 77.038 111.771 82.0772 111.652Z" fill="white" stroke="#151515" stroke-width="2" stroke-miterlimit="10" stroke-linecap="round" stroke-linejoin="round"/>
<path d="M121.336 107.44C121.336 107.44 124.324 106.882 127.112 108.039" stroke="#151515" stroke-width="2" stroke-miterlimit="10" stroke-linecap="round" stroke-linejoin="round"/>
<path d="M99.7852 111.153C99.7852 111.153 103.649 107.381 108.091 108.498" stroke="#151515" stroke-width="2" stroke-miterlimit="10" stroke-linecap="round" stroke-linejoin="round"/>
<path d="M115.142 109.815C115.142 109.815 116.616 116.341 117.413 118.397C118.389 120.952 113.967 121.031 113.967 121.031" stroke="#151515" stroke-width="2" stroke-miterlimit="10" stroke-linecap="round" stroke-linejoin="round"/>
<path d="M105.144 127.478L116.716 129.254L113.947 130.83C110.78 132.647 106.737 131.27 105.323 127.897L105.144 127.478Z" stroke="#151515" stroke-width="2" stroke-miterlimit="10" stroke-linecap="round" stroke-linejoin="round"/>
<path d="M110.781 116.741C110.781 116.741 107.554 119.375 103.252 117.18" stroke="#151515" stroke-width="2" stroke-miterlimit="10" stroke-linecap="round" stroke-linejoin="round"/>
<path d="M121.316 115.763C121.316 115.763 126.415 118.557 129.423 114.865" stroke="#151515" stroke-width="2" stroke-miterlimit="10" stroke-linecap="round" stroke-linejoin="round"/>
<path d="M100.506 158.551L83.7348 144.182C74.6123 139.652 63.5578 141.927 56.9849 149.73C41.19 168.43 14.2409 200.362 13.5438 201.36L4.10268 212.955C-5.33844 224.55 8.60414 240.516 21.3317 232.653L66.8842 203.734C67.8004 203.635 74.9509 202.397 77.5403 197.827" fill="white"/>
<path d="M100.506 158.551L83.7348 144.182C74.6123 139.652 63.5578 141.927 56.9849 149.73C41.19 168.43 14.2409 200.362 13.5438 201.36L4.10268 212.955C-5.33844 224.55 8.60414 240.516 21.3317 232.653L66.8842 203.734C67.8004 203.635 74.9509 202.397 77.5403 197.827" stroke="#151515" stroke-width="2" stroke-miterlimit="10" stroke-linecap="round" stroke-linejoin="round"/>
<path d="M76.9627 198.945L100.605 159.31L83.8344 144.94C74.712 140.41 63.6575 142.685 57.0846 150.488C51.3283 157.294 44.0981 165.856 37.1865 174.058C51.7864 177.371 64.9721 186.751 76.9627 198.945Z" fill="#D7D7CA"/>
<path d="M85.3285 151.147C85.1293 151.107 84.9301 151.167 84.7708 151.307L73.4375 162.004C73.4176 162.024 73.4176 162.044 73.3976 162.064L70.4498 162.423C70.4299 162.423 70.39 162.443 70.3701 162.443C70.3303 162.463 70.2705 162.463 70.2307 162.483C70.1908 162.503 70.151 162.543 70.1311 162.562C70.1112 162.582 70.0713 162.602 70.0514 162.622L62.6818 170.925C59.5347 174.477 57.8218 179.047 57.8815 183.797L57.9413 190.662L17.707 205.65C17.5277 205.71 17.3883 205.87 17.3285 206.049C17.2688 206.229 17.2887 206.449 17.4082 206.608L29.4586 225.707C29.6578 225.987 66.4463 202.776 66.4463 202.776C69.5336 202.557 73.0789 202.976 75.4094 201.08C77.0825 199.723 78.4568 198.007 79.4129 196.011L88.0174 178.209C88.0971 178.049 88.0971 177.85 88.0174 177.67C87.9378 177.491 87.7983 177.371 87.6191 177.311L86.1053 176.852C84.5915 176.393 82.9383 176.792 81.803 177.89L76.2658 183.258L76.7239 174.078C76.7239 173.898 76.6642 173.739 76.5646 173.619C76.8036 172.94 76.9231 172.421 76.9231 172.362C76.943 172.302 76.9231 172.222 76.9231 172.162C77.5007 172.042 78.1381 171.922 78.8153 171.803C80.0104 171.603 80.9864 171.204 81.7034 170.625C82.042 170.346 82.3209 170.027 82.5599 169.687C83.2969 168.53 83.1973 167.312 83.1176 166.813C84.0936 166.734 84.9102 166.334 85.5675 165.816C87.5394 164.199 88.1768 161.265 88.2166 161.106C88.2565 160.906 88.1967 160.706 88.0573 160.547C87.9178 160.387 87.7187 160.327 87.5195 160.347L83.6753 160.806C84.7509 159.469 86.424 157.234 86.7028 156.096C87.1012 154.46 85.926 151.786 85.7866 151.486C85.7069 151.307 85.5277 151.187 85.3285 151.147Z" fill="white"/>
<path d="M73.875 162.483L85.2083 151.786C85.2083 151.786 86.4432 154.5 86.0847 155.997C85.7262 157.473 82.3401 161.505 82.3401 161.505" stroke="#151515" stroke-width="2" stroke-miterlimit="10" stroke-linecap="round" stroke-linejoin="round"/>
<path d="M66.0479 168.55C66.0479 168.55 79.4128 166.474 82.9781 166.215C86.5634 165.955 87.5792 160.986 87.5792 160.986L70.5095 163.062" stroke="#151515" stroke-width="2" stroke-miterlimit="10" stroke-linecap="round" stroke-linejoin="round"/>
<path d="M74.4922 172.082C74.4922 172.082 76.4242 171.603 78.7148 171.204C83.4354 170.386 82.4395 166.734 82.4395 166.734" stroke="#151515" stroke-width="2" stroke-miterlimit="10" stroke-linecap="round" stroke-linejoin="round"/>
<path d="M66.3658 172.002L76.3248 172.282C76.3248 172.282 75.7472 175.395 73.8948 176.114C72.0624 176.812 67.4414 176.952 67.4414 176.952L65.3301 180.444C65.3301 180.444 68.4572 184.835 67.4414 190.403" stroke="#151515" stroke-width="2" stroke-miterlimit="10" stroke-linecap="round" stroke-linejoin="round"/>
<path d="M76.1058 174.078L75.5481 184.855L82.2406 178.369C83.2165 177.431 84.6108 177.091 85.9254 177.471L87.4391 177.93L78.8346 195.732C76.5838 200.362 72.0226 203.435 66.8838 203.734" stroke="#151515" stroke-width="2" stroke-miterlimit="10" stroke-linecap="round" stroke-linejoin="round"/>
<path d="M70.5089 163.062L63.1591 171.344C60.1316 174.776 58.4585 179.207 58.5182 183.777L58.5979 191.102L17.9453 206.249" stroke="#151515" stroke-width="2" stroke-miterlimit="10" stroke-linecap="round" stroke-linejoin="round"/>
<path d="M179.053 10.5544C200.797 -3.09393 229.763 -0.413858 248.659 18.6182" stroke="#151515" stroke-width="4"/>
<path d="M161.916 90.1656C150.451 72.8455 149.455 50.5666 158.927 32.3846" stroke="#151515" stroke-width="4" stroke-linecap="round"/>
<path d="M249.012 6.51672V19.1851H236.422" stroke="#151515" stroke-width="4" stroke-linecap="round"/>
<path d="M240.735 105.278C218.814 120.248 188.747 117.946 169.335 98.3945" stroke="#151515" stroke-width="4" stroke-linecap="round"/>
<path d="M256.092 26.8477C268.857 46.1395 268.646 71.5588 255.459 90.6381" stroke="#151515" stroke-width="4" stroke-linecap="round"/>
<path d="M168.819 110.674V97.9934H181.409" stroke="#151515" stroke-width="4" stroke-linecap="round"/>
<rect x="230.499" y="80" width="32" height="32" rx="16" fill="#D7D7CA"/>
<path d="M254.184 102.867C254.184 102.867 254.184 102.303 254.172 102.005C254.15 99.1547 251.833 96.8678 249.015 96.8908C248.079 96.9023 244.828 96.9253 243.892 96.9368C241.062 96.9598 238.792 99.2926 238.815 102.131C238.815 102.43 238.826 102.993 238.826 102.993L254.184 102.867Z" fill="#3C3C3C"/>
<path d="M249.814 91.4199C249.825 93.316 248.308 94.8674 246.425 94.8904C244.543 94.9019 243.002 93.3735 242.98 91.4773C242.968 89.5812 244.486 88.0298 246.368 88.0068C248.262 87.9953 249.803 89.5237 249.814 91.4199Z" fill="#3C3C3C"/>
<rect x="152.499" y="2" width="32" height="32" rx="16" fill="#E83D37"/>
<path d="M176.184 24.8667C176.184 24.8667 176.184 24.3036 176.172 24.0048C176.15 21.1548 173.833 18.8679 171.015 18.8909C170.079 18.9024 166.828 18.9254 165.892 18.9369C163.062 18.9599 160.792 21.2927 160.815 24.1312C160.815 24.43 160.826 24.9931 160.826 24.9931L176.184 24.8667Z" fill="#F1F1EE"/>
<path d="M171.825 13.4202C171.836 15.3164 170.319 16.8678 168.436 16.8908C166.553 16.9023 165.013 15.3739 164.99 13.4777C164.979 11.5815 166.496 10.0301 168.379 10.0071C170.273 9.99565 171.813 11.5241 171.825 13.4202Z" fill="#F1F1EE"/>
<path d="M207.652 86.9993C224.136 86.9993 237.499 73.8479 237.499 57.6248C237.499 41.4018 224.136 28.2504 207.652 28.2504C191.168 28.2504 177.805 41.4018 177.805 57.6248C177.805 73.8479 191.168 86.9993 207.652 86.9993Z" stroke="#E83D37" stroke-width="4"/>
<path d="M229.754 36.7413C224.297 38.6416 216.41 39.8318 207.65 39.8318C199.409 39.8318 191.949 38.7816 186.543 37.0714" stroke="#E83D37" stroke-width="4"/>
<path d="M186.543 79.0276C192 77.1273 199.886 75.9371 208.646 75.9371C216.888 75.9371 224.347 76.9873 229.754 78.6976" stroke="#E83D37" stroke-width="4"/>
<path d="M207.651 86.9993C217.097 86.9993 224.755 73.8479 224.755 57.6248C224.755 41.4018 217.097 28.2504 207.651 28.2504C198.205 28.2504 190.548 41.4018 190.548 57.6248C190.548 73.8479 198.205 86.9993 207.651 86.9993Z" stroke="#E83D37" stroke-width="4"/>
<path d="M207.458 27V85.9689" stroke="#E83D37" stroke-width="4"/>
<path d="M237.417 56.4843H177.499" stroke="#E83D37" stroke-width="4"/>
</svg>
